<svg id="exqegtj2RBQ1" xmlns="http://www.w3.org/2000/svg" xmlns:xlink="http://www.w3.org/1999/xlink" viewBox="0 0 150 155" shape-rendering="geometricPrecision" text-rendering="geometricPrecision"><path d="M10,39h65h65c5.523,0,10,4.4403,10,9.9631v99.5369c0,10.365-11.374,4.483-19.476.292l-.002-.001c-.886-.459-1.733-.897-2.522-1.291-7.471-3.735-41.5393-20.116-46.0145-22.267-.3301-.158-.6599-.295-1.0065-.414-2.6427-.904-4.1824-1.211-5.979-.991-1.7966-.22-3.3363.087-5.979.991-.3466.119-.6764.256-1.0065.414C63.5393,127.384,29.4707,143.765,22,147.5c-.7891.395-1.6366.833-2.5232,1.291l-.0008.001C11.3737,152.983,0,158.865,0,148.5v-99.5369C0,43.4403,4.47715,39,10,39Z" transform="translate(0-.504173)" clip-rule="evenodd" fill="#004f9f" fill-rule="evenodd"/><path id="exqegtj2RBQ3" d="M123.313,42c1.733-3.1018,2.721-6.6769,2.721-10.4828C126.034,19.6336,116.401,10,104.517,10C92.6336,10,83,19.6336,83,31.5172c0,3.8059.9881,7.381,2.7218,10.4828h37.5912Z" transform="matrix(0 0 0 0 99.55025 32.90175)" clip-rule="evenodd" fill="#ff7c00" fill-rule="evenodd"/><g mask="url(#exqegtj2RBQ6)"><path d="M123.313,42v1h.586l.287-.5121L123.313,42ZM85.7218,42l-.873.4879.2863.5121h.5867v-1ZM125.034,31.5172c0,3.6307-.942,7.0384-2.594,9.9949l1.746.9758c1.814-3.247,2.848-6.9896,2.848-10.9707h-2ZM104.517,11c11.332,0,20.517,9.1859,20.517,20.5172h2C127.034,19.0813,116.953,9,104.517,9v2ZM84,31.5172C84,20.1859,93.1859,11,104.517,11v-2C92.0813,9,82,19.0813,82,31.5172h2Zm2.5947,9.9949C84.9422,38.5556,84,35.1479,84,31.5172h-2c0,3.9811,1.034,7.7237,2.8488,10.9707l1.7459-.9758ZM85.7218,43h37.5912v-2h-37.5912v2Z" fill="#fff"/><mask id="exqegtj2RBQ6" mask-type="luminance" x="-150%" y="-150%" height="400%" width="400%"><path d="M123.313,42c1.733-3.1018,2.721-6.6769,2.721-10.4828C126.034,19.6336,116.401,10,104.517,10C92.6336,10,83,19.6336,83,31.5172c0,3.8059.9881,7.381,2.7218,10.4828h37.5912Z" clip-rule="evenodd" fill="#fff" fill-rule="evenodd"/></mask></g><path d="M104.884,43h-8.9823-1.5969c.4951-1.5019,1.1347-2.9306,1.9008-4.2669C95.7142,27.2109,84.7217,18,71.2331,18c-1.5899,0-3.1451.128-4.6526.3726C70.488,16.2343,75.0953,15,80.0288,15c11.3469,0,20.9682,6.5295,24.3182,15.5697C107.26,28.9286,110.576,28,114.095,28c7.577,0,14.216,4.3064,17.905,10.7611L132,43h-27.116Z" clip-rule="evenodd" fill="#00ade9" fill-rule="evenodd"/><g mask="url(#exqegtj2RBQ11)"><path d="M94.3048,43l-.9497-.3131L92.9223,44h1.3825v-1Zm1.9008-4.2669l.8675.4974.1439-.2509-.0123-.2891-.9991.0426ZM66.5805,18.3726l-.48-.8772.6402,1.8643-.1602-.9871ZM104.347,30.5697l-.937.3474.407,1.0992l1.021-.5754-.491-.8712ZM132,38.7611h1v-.2656l-.132-.2305-.868.4961ZM132,43v1h1v-1h-1Zm-27.116-1h-8.9823v2h8.9823v-2Zm-8.9823,0h-1.5969v2h1.5969v-2Zm-.6471,1.3131c.4739-1.4378,1.0859-2.8047,1.8185-4.0826l-1.735-.9947c-.7997,1.3947-1.4668,2.8852-1.983,4.4511l1.8995.6262ZM71.2331,19c13.0863,0,23.5101,8.9127,23.9734,19.7758l1.9982-.0853C96.6852,26.5091,85.1239,17,71.2331,17v2Zm-4.4924.3597C68.1952,19.1237,69.6969,19,71.2331,19v-2c-1.6436,0-3.2524.1323-4.8128.3855l.3204,1.9742ZM80.0288,14c-5.1005,0-9.873,1.2762-13.9283,3.4954l.9601,1.7545C70.8202,17.1924,75.2624,16,80.0288,16v-2ZM105.285,30.2222C101.773,20.7439,91.7428,14,80.0288,14v2c10.9798,0,20.1932,6.315,23.3812,14.9171l1.875-.6949Zm-.447,1.2187C107.607,29.8808,110.755,29,114.095,29v-2c-3.698,0-7.182.9764-10.239,2.6984l.982,1.7425ZM114.095,29c7.181,0,13.507,4.0803,17.037,10.2573l1.736-.9923C129.021,31.5325,122.068,27,114.095,27v2ZM131,38.7611L131,43h2v-4.2389h-2ZM132,42h-27.116v2L132,44v-2Z" fill="#fff"/><mask id="exqegtj2RBQ11" mask-type="luminance" x="-150%" y="-150%" height="400%" width="400%"><path d="M104.884,43h-8.9823-1.5969c.4951-1.5019,1.1347-2.9306,1.9008-4.2669C95.7142,27.2109,84.7217,18,71.2331,18c-1.5899,0-3.1451.128-4.6526.3726C70.488,16.2343,75.0953,15,80.0288,15c11.3469,0,20.9682,6.5295,24.3182,15.5697C107.26,28.9286,110.576,28,114.095,28c7.577,0,14.216,4.3064,17.905,10.7611L132,43h-27.116Z" clip-rule="evenodd" fill="#fff" fill-rule="evenodd"/></mask></g><path d="M32.121,17.4651C33.2951,7.65185,42.8665,0,54.5,0C65.5519,0,74.7427,6.9059,76.6407,16.0102C88.4947,16.3881,98,27.1917,98,37.5c0,.387.0083.8238.0175,1.3028v.0005.0005c.0225,1.1814.0499,2.619-.0305,4.1962h-36-7.9035-36C18.0005,41.1419,18,39.2858,18,37.5c0-8.8721,5.8625-16.8514,14.121-20.0349Z" clip-rule="evenodd" fill="#94c11f" fill-rule="evenodd"/><g mask="url(#exqegtj2RBQ16)"><path d="M32.121,17.4651l.3597.9331.5617-.2166.0716-.5977-.993-.1188Zm44.5197-1.4549l-.9789.2041.1605.7703.7865.0251.0319-.9995ZM98.0175,38.8028h1v-.0095l-.0002-.0095-.9998.019Zm0,.001h-1v.0095l.0001.0096.9999-.0191ZM97.987,43v1h.9503l.0484-.9491L97.987,43ZM18.0835,43l-.999.0447.0428.9553h.9562v-1ZM33.114,17.5839C34.2157,8.37535,43.263,1,54.5,1v-2C42.47,-1,32.3746,6.92835,31.1281,17.3463l1.9859.2376ZM54.5,1C65.1689,1,73.8778,7.65693,75.6618,16.2143l1.9579-.4082C75.6076,6.15487,65.9349,-1,54.5,-1v2ZM76.6088,17.0097c5.6271.1794,10.7287,2.8358,14.4339,6.7124C94.7536,27.6048,97,32.6444,97,37.5h2c0-5.4528-2.5063-10.9691-6.5115-15.1597-4.011-4.1967-9.5891-7.1311-15.8159-7.3296l-.0638,1.999ZM97,37.5c0,.3984.0086.8456.0176,1.3219l1.9997-.0381C99.0081,38.3021,99,37.8755,99,37.5h-2Zm.0175,1.3028v.0005h2v-.0005h-2Zm0,.0005v.0005h2v-.0005h-2Zm.0001.0196c.0226,1.1831.0491,2.5883-.0293,4.1262l1.9974.1018c.0824-1.6165.0541-3.0864.0316-4.2662l-1.9997.0382ZM97.987,42h-36v2h36v-2Zm-36,0h-7.9035v2h7.9035v-2Zm-7.9035,0h-36v2h36v-2Zm-35.001.9553C19.0006,41.1231,19,39.289,19,37.5h-2c0,1.7826.0003,3.6607.0845,5.5447l1.998-.0894ZM19,37.5c0-8.4296,5.5802-16.0564,13.4807-19.1018l-.7193-1.8662C23.1448,19.8535,17,28.1854,17,37.5h2Z" fill="#fff"/><mask id="exqegtj2RBQ16" mask-type="luminance" x="-150%" y="-150%" height="400%" width="400%"><path d="M32.121,17.4651C33.2951,7.65185,42.8665,0,54.5,0C65.5519,0,74.7427,6.9059,76.6407,16.0102C88.4947,16.3881,98,27.1917,98,37.5c0,.387.0083.8238.0175,1.3028v.0005.0005c.0225,1.1814.0499,2.619-.0305,4.1962h-36-7.9035-36C18.0005,41.1419,18,39.2858,18,37.5c0-8.8721,5.8625-16.8514,14.121-20.0349Z" clip-rule="evenodd" fill="#fff" fill-rule="evenodd"/></mask></g><path d="M25,34.4055l8.1509-8.6072l6.1132,5.5694v10.6323L25,42v-7.5945Z" fill="#d4edfc"/><path d="M31.919,24h13.4584L52,31.3676l-8.6604.0001h-4.0754l-6.1133-5.5694L25,34.4055v-3.0379L31.919,24Z" fill="#004f9f"/><path d="M39.2642,31.3676h12.7358L52,42h-12.7358v-10.6324Z" fill="#fff"/><path d="M66,17h-15v25h21.5h16v-9.5l-6-6-3-3h-7v-6.5-7L66,17Z" clip-rule="evenodd" fill="#004f9f" fill-rule="evenodd"/><path d="M72,30.4821L78,25l8.5,8.5v8.4821h-14.5v-11.5Z" fill="#d4edfc"/><path id="exqegtj2RBQ23" d="M58.4048,35.5l.1702,1.4431L60,37.2272l-1.3199.6078.1702,1.443-.9859-1.0674-1.3199.6078.7106-1.2675-.9859-1.0675l1.425.2841.7106-1.2675Z" transform="matrix(.34202 0.939693-.939693 0.34202 73.385563-30.027446)" opacity="0" fill="#ffe200"/><path id="exqegtj2RBQ24" d="M61.6544,31l-.0276,1.4528L63,32.928l-1.3902.4227-.0276,1.4528-.8316-1.1915-1.3903.4227.8763-1.1592-.8316-1.1915l1.3731.4751L61.6544,31Z" transform="matrix(.34202 0.939693-.939693 0.34202 71.172838-35.841845)" opacity="0" fill="#ffe200"/><path id="exqegtj2RBQ25" d="M65.9413,27.0259l-.3672,1.4059l1.2236.7837-1.4506.0852-.3672,1.4059-.5293-1.3532L63,29.4386l1.1235-.9216-.5293-1.3533l1.2236.7837l1.1235-.9215Z" opacity="0" fill="#ffe200"/><path id="exqegtj2RBQ26" d="M70.2807,23.5708l-.4535,1.3805L71,25.8092l-1.4531-.0047-.4534,1.3805-.4446-1.3834-1.4531-.0046l1.1783-.8504-.4446-1.3834l1.1729.8579l1.1783-.8503Z" opacity="0" fill="#ffe200"/><path d="M36.471,75.214c-.058,2.5327-.6477,4.35-1.769,5.452-1.102,1.0827-2.726,1.624-4.872,1.624-1.16,0-2.1557-.1643-2.987-.493-.812-.348-1.479-.9183-2.001-1.711s-.9087-1.8367-1.16-3.132c-.232-1.3147-.348-2.9483-.348-4.901c0-3.9247.5027-6.6217,1.508-8.091c1.0247-1.4693,2.6873-2.204,4.988-2.204c2.146,0,3.77.551,4.872,1.653c1.1213,1.0827,1.711,2.8903,1.769,5.423h-3.828c-.0387-1.6047-.29-2.6487-.754-3.132-.464-.5027-1.131-.754-2.001-.754-.464,0-.87.0773-1.218.232-.3287.1353-.609.4447-.841.928-.2127.464-.3673,1.16-.464,2.088-.0967.9087-.145,2.1363-.145,3.683c0,1.5853.0483,2.8517.145,3.799.116.9473.2803,1.6723.493,2.175s.4833.841.812,1.015c.3287.1547.725.232,1.189.232.87,0,1.537-.261,2.001-.783.4833-.522.7443-1.5563.783-3.103h3.828Zm2.97-3.19c0-1.9913.1257-3.6443.377-4.959s.6477-2.3587,1.189-3.132c.5413-.7927,1.218-1.3533,2.03-1.682.8313-.3287,1.827-.493,2.987-.493s2.1557.1643,2.987.493s1.508.8893,2.03,1.682c.5413.7733.9377,1.8173,1.189,3.132s.377,2.9677.377,4.959-.1257,3.654-.377,4.988c-.2513,1.3147-.6477,2.3683-1.189,3.161-.522.7733-1.1987,1.3243-2.03,1.653-.8313.3093-1.827.464-2.987.464s-2.1557-.1547-2.987-.464c-.812-.3287-1.4887-.8797-2.03-1.653-.5413-.7927-.9377-1.8463-1.189-3.161-.2513-1.334-.377-2.9967-.377-4.988Zm3.886.029c0,1.4307.0387,2.6003.116,3.509.0967.9087.2513,1.624.464,2.146s.4833.8893.812,1.102c.348.1933.783.29,1.305.29c1.044,0,1.7497-.4543,2.117-1.363.3867-.928.58-2.813.58-5.655c0-1.508-.0483-2.726-.145-3.654-.0773-.9473-.2223-1.6723-.435-2.175-.1933-.522-.464-.87-.812-1.044s-.783-.261-1.305-.261-.957.087-1.305.261c-.3287.174-.5993.522-.812,1.044-.2127.5027-.3673,1.218-.464,2.146-.0773.928-.116,2.146-.116,3.654ZM66.7622,62.048v3.19h-4.06v16.762h-3.886v-16.762h-4.06v-3.19h12.006Zm13.076,0v3.19h-4.06v16.762h-3.886v-16.762h-4.06v-3.19h12.006Zm5.4432,0h4.263L94.7064,82h-3.828l-1.102-4.524h-4.988L83.6574,82h-3.683l5.307-19.952Zm.29,12.238h3.48l-.667-2.697c-.2127-.928-.3963-1.8753-.551-2.842s-.29-2.1363-.406-3.509h-.145c-.1353,1.3727-.29,2.5423-.464,3.509s-.377,1.914-.609,2.842l-.638,2.697Zm17.6546-2.929h6.873v2.987c0,3.0353-.58,5.1233-1.74,6.264-1.16,1.1213-2.774,1.682-4.843,1.682-1.14,0-2.126-.1547-2.958-.464-.8117-.3287-1.4884-.8797-2.0297-1.653-.522-.7927-.9087-1.8463-1.16-3.161-.2514-1.3147-.377-2.9677-.377-4.959s.1256-3.6443.377-4.959c.2513-1.334.638-2.3877,1.16-3.161.5413-.7927,1.218-1.3533,2.0297-1.682.832-.3287,1.818-.493,2.958-.493c1.992,0,3.558.5123,4.698,1.537c1.16,1.0247,1.779,2.8807,1.856,5.568h-3.857c-.077-1.624-.338-2.6777-.783-3.161-.444-.5027-1.073-.754-1.885-.754-.502,0-.928.087-1.276.261s-.628.5123-.841,1.015c-.193.5027-.338,1.2083-.435,2.117-.077.9087-.116,2.1073-.116,3.596c0,1.45.039,2.639.116,3.567.097.928.252,1.6627.464,2.204.213.522.493.8893.841,1.102.348.1933.783.29,1.305.29.851,0,1.499-.2803,1.943-.841.445-.58.687-1.827.725-3.741h-3.045v-3.161Zm10.784-9.309h10.266v3.19h-6.38v5.046h5.974v3.074h-5.974v5.452h6.641v3.19h-10.527v-19.952Z" fill="#fff"/><path d="M21.67,95.49c.06.74.18,1.26.36,1.56.19.3.49.45.9.45.64,0,.96-.365.96-1.095c0-.38-.13-.72-.39-1.02-.25-.3-.675-.64-1.275-1.02-.84-.52-1.435-1.035-1.785-1.545-.34-.52-.51-1.095-.51-1.725c0-.81.255-1.435.765-1.875.51-.45,1.24-.675,2.19-.675c1.91,0,2.9,1.23,2.97,3.69h-1.92c-.08-.81-.225-1.36-.435-1.65-.2-.29-.46-.435-.78-.435-.56,0-.84.3-.84.9c0,.3.115.59.345.87.24.28.69.64,1.35,1.08.75.5,1.32.99,1.71,1.47s.585,1.08.585,1.8c0,1.92-1.015,2.88-3.045,2.88-1,0-1.76-.275-2.28-.825-.51-.55-.795-1.495-.855-2.835h1.98Zm5.3868-.6c0-1.53.225-2.605.675-3.225.46-.63,1.23-.945,2.31-.945c1.07,0,1.835.315,2.295.945.46.62.69,1.695.69,3.225s-.23,2.625-.69,3.285c-.46.65-1.225.975-2.295.975-1.08,0-1.85-.325-2.31-.975-.45-.66-.675-1.755-.675-3.285Zm1.905,0c0,1.11.07,1.86.21,2.25.15.38.44.57.87.57s.715-.19.855-.57c.15-.39.225-1.14.225-2.25s-.075-1.84-.225-2.19c-.14-.36-.425-.54-.855-.54s-.72.18-.87.54c-.14.35-.21,1.08-.21,2.19Zm10.5137,1.47c-.11.98-.38,1.69-.81,2.13-.42.44-1.035.66-1.845.66-.97,0-1.66-.325-2.07-.975-.41-.66-.615-1.75-.615-3.27s.2-2.595.6-3.225c.41-.64,1.11-.96,2.1-.96.82,0,1.435.215,1.845.645.42.43.685,1.14.795,2.13h-1.785c-.05-.5-.135-.845-.255-1.035-.12-.2-.31-.3-.57-.3-.34,0-.565.18-.675.54-.11.35-.165,1.07-.165,2.16c0,1.14.055,1.9.165,2.28.12.38.345.57.675.57.26,0,.45-.1.57-.3.12-.21.205-.56.255-1.05h1.785ZM40.7957,99v-8.145h1.905v8.145h-1.905Zm-.15-10.23c0-.3.105-.555.315-.765.22-.21.485-.315.795-.315.3,0,.55.105.75.315.21.21.315.465.315.765c0,.31-.105.57-.315.78-.2.21-.45.315-.75.315-.31,0-.575-.105-.795-.315-.21-.21-.315-.47-.315-.78Zm3.3248,8.025c0-1.04.265-1.745.795-2.115.54-.38,1.215-.57,2.025-.57h.915c0-.76-.065-1.27-.195-1.53-.12-.27-.325-.405-.615-.405-.22,0-.385.075-.495.225-.1.15-.18.45-.24.9h-1.875c.13-.94.4-1.61.81-2.01.42-.4,1.015-.6,1.785-.6c1.02,0,1.73.31,2.13.93s.6,1.5.6,2.64v3.285L49.8355,99h-1.785l-.15-.78c-.62.62-1.305.93-2.055.93-.52,0-.965-.175-1.335-.525-.36-.36-.54-.97-.54-1.83Zm2.835-1.485c-.26,0-.485.07-.675.21s-.285.49-.285,1.05c0,.44.06.74.18.9.13.15.31.225.54.225.29,0,.555-.11.795-.33s.36-.55.36-.99v-1.065h-.915Zm6.4516-7.26v10.95h-1.89v-10.95h1.89Zm10.7976.015v9.48L64.2497,99h-1.68l-.18-.735c-.59.59-1.25.885-1.98.885-.81,0-1.375-.335-1.695-1.005-.31-.68-.465-1.735-.465-3.165c0-1.34.15-2.385.45-3.135.31-.75.9-1.125,1.77-1.125.48,0,.85.105,1.11.315.26.2.465.415.615.645v-3.615h1.86Zm-1.845,6.87c0-1.09-.095-1.825-.285-2.205s-.475-.57-.855-.57-.635.19-.765.57c-.12.37-.18,1.1-.18,2.19s.06,1.83.18,2.22c.13.38.39.57.78.57.38,0,.66-.185.84-.555.19-.38.285-1.12.285-2.22Zm6.0277,2.775c.27,0,.475-.095.615-.285.15-.19.25-.545.3-1.065h1.875c-.14.99-.425,1.705-.855,2.145-.42.43-1.07.645-1.95.645-1.01,0-1.74-.325-2.19-.975-.44-.66-.66-1.76-.66-3.3c0-1.52.225-2.59.675-3.21.46-.63,1.19-.945,2.19-.945c1.16,0,1.925.365,2.295,1.095.38.72.57,1.685.57,2.895v.675h-3.825c.02.91.095,1.525.225,1.845.14.32.385.48.735.48Zm.015-5.55c-.33,0-.57.13-.72.39-.14.25-.22.75-.24,1.5h1.905c-.03-.75-.115-1.25-.255-1.5-.14-.26-.37-.39-.69-.39Zm9.0797,4.77c0,.69-.225,1.235-.675,1.635-.44.39-1.075.585-1.905.585-.91,0-1.59-.245-2.04-.735-.44-.49-.67-1.175-.69-2.055h1.65c.02.9.345,1.35.975,1.35.57,0,.855-.265.855-.795c0-.33-.135-.6-.405-.81-.26-.21-.58-.43-.96-.66-.43-.25-.855-.56-1.275-.93s-.63-.915-.63-1.635c0-.68.215-1.21.645-1.59.44-.39,1.045-.585,1.815-.585c1.67,0,2.53.935,2.58,2.805h-1.665c-.03-.91-.31-1.365-.84-1.365-.51,0-.765.26-.765.78c0,.29.115.535.345.735.24.19.485.355.735.495.61.32,1.135.675,1.575,1.065.45.38.675.95.675,1.71Zm4.7606-8.25h5.265v1.65h-3.255v2.595h2.925v1.59h-2.925v4.485h-2.01v-10.32Zm8.1763-.63v10.95h-1.89v-10.95h1.89Zm1.4724,8.745c0-1.04.265-1.745.795-2.115.54-.38,1.215-.57,2.025-.57h.915c0-.76-.065-1.27-.195-1.53-.12-.27-.325-.405-.615-.405-.22,0-.385.075-.495.225-.1.15-.18.45-.24.9h-1.875c.13-.94.4-1.61.81-2.01.42-.4,1.015-.6,1.785-.6c1.02,0,1.73.31,2.13.93s.6,1.5.6,2.64v3.285L97.6064,99h-1.785l-.15-.78c-.62.62-1.305.93-2.055.93-.52,0-.965-.175-1.335-.525-.36-.36-.54-.97-.54-1.83Zm2.835-1.485c-.26,0-.485.07-.675.21s-.285.49-.285,1.05c0,.44.06.74.18.9.13.15.31.225.54.225.29,0,.555-.11.795-.33s.36-.55.36-.99v-1.065h-.915Zm4.4116-4.44h1.41l.42.81c.17-.23.39-.445.66-.645.28-.21.7-.315,1.26-.315.69,0,1.175.27,1.455.81.29.53.435,1.5.435,2.91v4.56h-1.905v-4.35c0-1.01-.045-1.675-.135-1.995-.08-.33-.305-.495-.675-.495-.41,0-.69.175-.84.525s-.225,1-.225,1.95v4.365h-1.86v-8.13Zm12.717-2.805v9.48L111.9,99h-1.68l-.18-.735c-.59.59-1.25.885-1.98.885-.81,0-1.375-.335-1.695-1.005-.31-.68-.465-1.735-.465-3.165c0-1.34.15-2.385.45-3.135.31-.75.9-1.125,1.77-1.125.48,0,.85.105,1.11.315.26.2.465.415.615.645v-3.615h1.86Zm-1.845,6.87c0-1.09-.095-1.825-.285-2.205s-.475-.57-.855-.57-.635.19-.765.57c-.12.37-.18,1.1-.18,2.19s.06,1.83.18,2.22c.13.38.39.57.78.57.38,0,.66-.185.84-.555.19-.38.285-1.12.285-2.22Zm3.505-4.08h1.425l.42.81c.45-.64,1.07-.96,1.86-.96.08,0,.19.01.33.03v1.59c-.16-.02-.28-.03-.36-.03-.51,0-.94.15-1.29.45-.34.3-.51.885-.51,1.755v4.5h-1.875v-8.145Zm7.492,6.855c.27,0,.475-.095.615-.285.15-.19.25-.545.3-1.065h1.875c-.14.99-.425,1.705-.855,2.145-.42.43-1.07.645-1.95.645-1.01,0-1.74-.325-2.19-.975-.44-.66-.66-1.76-.66-3.3c0-1.52.225-2.59.675-3.21.46-.63,1.19-.945,2.19-.945c1.16,0,1.925.365,2.295,1.095.38.72.57,1.685.57,2.895v.675h-3.825c.02.91.095,1.525.225,1.845.14.32.385.48.735.48Zm.015-5.55c-.33,0-.57.13-.72.39-.14.25-.22.75-.24,1.5h1.905c-.03-.75-.115-1.25-.255-1.5-.14-.26-.37-.39-.69-.39Zm9.08,4.77c0,.69-.225,1.235-.675,1.635-.44.39-1.075.585-1.905.585-.91,0-1.59-.245-2.04-.735-.44-.49-.67-1.175-.69-2.055h1.65c.02.9.345,1.35.975,1.35.57,0,.855-.265.855-.795c0-.33-.135-.6-.405-.81-.26-.21-.58-.43-.96-.66-.43-.25-.855-.56-1.275-.93s-.63-.915-.63-1.635c0-.68.215-1.21.645-1.59.44-.39,1.045-.585,1.815-.585c1.67,0,2.53.935,2.58,2.805h-1.665c-.03-.91-.31-1.365-.84-1.365-.51,0-.765.26-.765.78c0,.29.115.535.345.735.24.19.485.355.735.495.61.32,1.135.675,1.575,1.065.45.38.675.95.675,1.71Z" fill="#fff"/>
<script><![CDATA[
(function(s,i,u,o,c,w,d,t,n,x,e,p,a,b){(a=Array.from(d.querySelectorAll('svg#' + i.root)).filter(n=> !n.svgatorPlayer)[0]||{}).svgatorPlayer={ready:(function(a){b=[];return function(c){return c?(b.push(c),a.svgatorPlayer):b}})(a)};w[o]=w[o]||{};w[o][s]=w[o][s]||[];w[o][s].push(i);e=d.createElementNS(n,t);e.async=true;e.setAttributeNS(x,'href',[u,s,'.','j','s','?','v','=',c].join(''));e.setAttributeNS(null,'src',[u,s,'.','j','s','?','v','=',c].join(''));p=d.getElementsByTagName(t)[0];p.parentNode.insertBefore(e,p);})('91c80d77',{"root":"exqegtj2RBQ1","version":"2022-05-04","animations":[{"elements":{"exqegtj2RBQ3":{"transform":{"data":{"o":{"x":99.55025,"y":32.90175,"type":"corner"},"t":{"x":-99.55025,"y":-31.90175}},"keys":{"s":[{"t":0,"v":{"x":0,"y":0},"e":[0.43,0.025,0.125,0.625]},{"t":1200,"v":{"x":1,"y":1}}]}},"fill":[{"t":200,"v":{"t":"c","v":{"r":255,"g":124,"b":0,"a":1}},"e":[0.42,0,0.58,1]},{"t":600,"v":{"t":"c","v":{"r":255,"g":157,"b":0,"a":1}},"e":[0.42,0,0.58,1]},{"t":1700,"v":{"t":"c","v":{"r":255,"g":226,"b":0,"a":1}}}]},"exqegtj2RBQ23":{"opacity":[{"t":1200,"v":0},{"t":1400,"v":1}]},"exqegtj2RBQ24":{"opacity":[{"t":1400,"v":0},{"t":1600,"v":1}]},"exqegtj2RBQ25":{"opacity":[{"t":1600,"v":0},{"t":1800,"v":1}]},"exqegtj2RBQ26":{"opacity":[{"t":1800,"v":0},{"t":2000,"v":1}]}},"s":"MDFA2MGQyNzliYPmNjYzliOGNiQYzBKYzZjNTcN5OTE4OVE4YzNg3ODc4Mzc5YBmJjMGM5YmNiIYWNiYzBjNmMD1Nzk5MTg4ODKM3OWMwY2JEYBmNjOWI4Y2JjIMGM2YzVjYTcS5TDkxODc4MzAc5YmRjMGMzYSzM3OTkxODg4GMzc5QWI4YzNPNY2JiY2M5YzDViOGNiYmM3OPUQ5MWJkYjhjMM2NhYmM4MzcR5Y2FOYzdiY2BJjQ2JiNzk5MSTg4ODU4YTg5NODNMNzliZGMU3Y2E3OTkxODAhJWDg3ODdkNHA|"}],"options":"MDPAxMDgyMjk3YWTdiNjg3OTdiCMjk0MTI5RTcXzNzY2ODZiSzAI5ODQ/"},'https://cdn.svgator.com/ply/','__SVGATOR_PLAYER__','2022-05-04',window,document,'script','http://www.w3.org/2000/svg','http://www.w3.org/1999/xlink')
]]></script>
</svg>
